<svg width="22" height="21" viewBox="0 0 22 21" fill="none" xmlns="http://www.w3.org/2000/svg">
<mask id="mask0_1_285" style="mask-type:luminance" maskUnits="userSpaceOnUse" x="0" y="0" width="22" height="21">
<path d="M0.90213 0.685181H21.3176V20.0389H0.90213V0.685181Z" fill="white"/>
</mask>
<g mask="url(#mask0_1_285)">
<path d="M21.3488 10.7592C21.3976 10.64 21.4243 10.5121 21.4243 10.3841C21.4243 10.3664 21.4331 10.3576 21.4331 10.3444C21.4331 10.3267 21.4243 10.3179 21.4243 10.3047C21.4243 10.0443 21.3355 9.81928 21.1535 9.63395C21.1358 9.61189 21.1314 9.58983 21.1136 9.56776L12.5036 1.0117C12.2861 0.799895 12.0287 0.693992 11.7269 0.698405C11.4251 0.698405 11.1677 0.804308 10.9547 1.01611C10.7372 1.22792 10.6307 1.48826 10.6307 1.78832C10.6307 2.08838 10.7328 2.34431 10.9458 2.55612L17.6785 9.25005H2.06954C1.92308 9.24564 1.78106 9.27212 1.64792 9.32948C1.51033 9.38243 1.3905 9.46186 1.28399 9.56335C1.17747 9.66925 1.09759 9.78398 1.03989 9.92077C0.986633 10.0576 0.955566 10.1944 0.955566 10.3444C0.955566 10.49 0.986633 10.6312 1.03989 10.7636C1.09759 10.9004 1.17747 11.0195 1.28399 11.121C1.3905 11.2225 1.51033 11.3019 1.64792 11.3549C1.78106 11.4122 1.92308 11.4387 2.06954 11.4343H17.6785L10.9458 18.1282C10.8437 18.2297 10.7639 18.3489 10.7062 18.4857C10.6485 18.618 10.6174 18.7592 10.6174 18.9049C10.6174 19.0505 10.644 19.1917 10.7017 19.3241C10.7594 19.4608 10.8393 19.58 10.9414 19.6815C11.0435 19.7874 11.1633 19.8624 11.3009 19.9198C11.434 19.9771 11.576 20.0036 11.7225 20.0036C11.869 20.0036 12.011 19.9727 12.1441 19.9153C12.2817 19.8624 12.4015 19.7786 12.5036 19.6771L21.1136 11.1166C21.1314 11.0989 21.1358 11.0725 21.1535 11.0548C21.2334 10.9666 21.3 10.8695 21.3488 10.7592Z" fill="#0C3F8C"/>
</g>
</svg>
