<svg xmlns="http://www.w3.org/2000/svg" xmlns:xlink="http://www.w3.org/1999/xlink" width="1200" zoomAndPan="magnify" viewBox="0 0 900 374.999991" height="500" preserveAspectRatio="xMidYMid meet" version="1.0"><defs><clipPath id="b6fd8d06c2"><path d="M 498 0 L 900 0 L 900 375 L 498 375 Z M 498 0 " clip-rule="nonzero"/></clipPath><clipPath id="eff7a56450"><path d="M 261.925781 -663.734375 L 1852.867188 -1027.507812 L 2182.535156 414.28125 L 591.59375 778.054688 Z M 261.925781 -663.734375 " clip-rule="nonzero"/></clipPath><clipPath id="c26aad937e"><path d="M 1853.1875 -1027.582031 L 262.246094 -663.808594 L 591.914062 777.980469 L 2182.855469 414.210938 Z M 1853.1875 -1027.582031 " clip-rule="nonzero"/></clipPath></defs><rect x="-90" width="1080" fill="#ffffff" y="-37.499999" height="449.999989" fill-opacity="1"/><rect x="-90" width="1080" fill="#0c3f8c" y="-37.499999" height="449.999989" fill-opacity="1"/><g clip-path="url(#b6fd8d06c2)"><g clip-path="url(#eff7a56450)"><g clip-path="url(#c26aad937e)"><path fill="#fcad0b" d="M 1834.664062 -305.476562 C 1680.089844 -152.449219 1519.347656 -253.921875 1402.664062 -136.867188 C 1242.671875 23.632812 1454.398438 305.191406 1292.167969 489.5 C 1150.453125 650.5 856.277344 586.335938 840.359375 582.65625 C 802.128906 573.796875 558.320312 517.339844 506.820312 347.992188 C 452.519531 169.460938 679.601562 87.9375 737.574219 -270.152344 C 767.28125 -453.628906 726.972656 -551.488281 798.757812 -599.441406 C 891.839844 -661.621094 1024.945312 -540.753906 1201.957031 -617.785156 C 1214.058594 -623.042969 1263.257812 -645.300781 1313.324219 -691.523438 C 1425.628906 -795.214844 1405.398438 -893.175781 1478.371094 -925.914062 C 1550.871094 -958.4375 1644.046875 -894.578125 1733.039062 -833.585938 C 1827.59375 -768.78125 1928.070312 -699.917969 1945.363281 -581.441406 C 1966.136719 -439.125 1852.566406 -323.203125 1834.664062 -305.476562 " fill-opacity="1" fill-rule="nonzero"/></g></g></g></svg>