<svg xmlns="http://www.w3.org/2000/svg" xmlns:xlink="http://www.w3.org/1999/xlink" width="40" zoomAndPan="magnify" viewBox="0 0 30 30.000001" height="40" preserveAspectRatio="xMidYMid meet" version="1.0"><defs><clipPath id="2e2118e13f"><path d="M 0.484375 0 L 29.515625 0 L 29.515625 29.03125 L 0.484375 29.03125 Z M 0.484375 0 " clip-rule="nonzero"/></clipPath><clipPath id="18ec0da8e0"><path d="M 3.398438 3.546875 L 26.625 3.546875 L 26.625 25.320312 L 3.398438 25.320312 Z M 3.398438 3.546875 " clip-rule="nonzero"/></clipPath></defs><g clip-path="url(#2e2118e13f)"><path fill="#ffffff" d="M 0.484375 0 L 29.515625 0 L 29.515625 29.03125 L 0.484375 29.03125 Z M 0.484375 0 " fill-opacity="1" fill-rule="nonzero"/><path fill="#298ec7" d="M 0.484375 0 L 29.515625 0 L 29.515625 29.03125 L 0.484375 29.03125 Z M 0.484375 0 " fill-opacity="1" fill-rule="nonzero"/></g><g clip-path="url(#18ec0da8e0)"><path fill="#fcad0b" d="M 19.101562 3.570312 C 19.050781 3.570312 19.003906 3.574219 18.957031 3.578125 C 17.03125 3.910156 15.972656 5.945312 15.820312 7.738281 C 15.597656 9.363281 16.316406 11.457031 18.101562 11.820312 C 18.359375 11.871094 18.628906 11.847656 18.882812 11.78125 C 21.035156 11.058594 22 8.507812 21.6875 6.398438 C 21.597656 5.035156 20.570312 3.550781 19.101562 3.570312 Z M 10.945312 3.65625 C 9.75 3.6875 8.816406 4.898438 8.628906 6.039062 C 8.226562 8.300781 9.253906 11.105469 11.609375 11.820312 C 11.828125 11.871094 12.058594 11.875 12.28125 11.839844 C 13.871094 11.574219 14.546875 9.792969 14.476562 8.351562 C 14.429688 6.453125 13.445312 4.257812 11.472656 3.722656 C 11.292969 3.675781 11.117188 3.652344 10.945312 3.65625 Z M 24.3125 10.074219 C 22.242188 10.199219 20.824219 12.261719 20.621094 14.191406 C 20.347656 15.582031 21.089844 17.441406 22.675781 17.550781 C 24.886719 17.523438 26.398438 15.160156 26.460938 13.128906 C 26.601562 11.78125 25.808594 10.148438 24.3125 10.074219 Z M 6.199219 10.53125 C 5.320312 10.527344 4.453125 11.050781 4.167969 11.949219 C 3.398438 14.339844 4.941406 17.375 7.476562 17.875 C 8.535156 18.058594 9.464844 17.246094 9.726562 16.265625 C 10.28125 14.175781 9.140625 11.746094 7.207031 10.796875 C 6.894531 10.621094 6.546875 10.535156 6.199219 10.535156 Z M 15.476562 14.824219 C 13.75 14.828125 12 15.703125 10.878906 17.007812 C 9.675781 18.527344 8.683594 20.296875 8.296875 22.214844 C 7.828125 23.59375 8.894531 25.183594 10.367188 25.191406 C 12.144531 25.242188 13.667969 24.023438 15.433594 23.933594 C 16.933594 23.703125 18.273438 24.484375 19.621094 24.992188 C 20.765625 25.484375 22.351562 25.296875 22.9375 24.0625 C 23.398438 22.804688 22.71875 21.464844 22.15625 20.347656 C 21.011719 18.535156 19.785156 16.628906 17.910156 15.496094 C 17.15625 15.03125 16.320312 14.824219 15.476562 14.824219 Z M 15.476562 14.824219 " fill-opacity="1" fill-rule="nonzero"/></g></svg>