<svg width="396" height="114" viewBox="0 0 396 114" fill="none" xmlns="http://www.w3.org/2000/svg">
<path d="M0.560913 56.8222C0.560913 50.8696 1.46552 45.7112 3.27472 41.3427C5.08393 36.9654 7.59376 33.3382 10.8131 30.4524C14.0413 27.5577 17.806 25.4132 22.1117 24.01C26.413 22.6112 31.0558 21.9096 36.0355 21.9096C37.8536 21.9096 39.6229 22.0684 41.339 22.3861C43.0639 22.7038 44.4696 23.0877 45.5605 23.5334V1.61153C46.4695 1.34236 47.9195 1.05554 49.9061 0.746658C51.9016 0.42895 53.9413 0.270096 56.0255 0.270096C58.0209 0.270096 59.8124 0.406887 61.3999 0.676056C62.9829 0.949639 64.3177 1.48798 65.4085 2.2999C66.4949 3.11182 67.3108 4.21939 67.8563 5.61819C68.3973 7.00816 68.6722 8.83057 68.6722 11.0898V75.2316C68.6722 79.4677 66.6767 82.8522 62.6947 85.3806C60.0696 87.0883 56.6685 88.593 52.4958 89.8991C48.3186 91.2141 43.5118 91.876 38.0753 91.876C32.1865 91.876 26.9053 91.0641 22.2359 89.4402C17.5754 87.8164 13.6333 85.4689 10.4051 82.3977C7.1858 79.3265 4.73805 75.6508 3.06187 71.3662C1.39457 67.0859 0.560913 62.2365 0.560913 56.8222ZM39.175 39.913C34.2795 39.913 30.5104 41.3162 27.8764 44.1138C25.2512 46.9026 23.9387 51.1387 23.9387 56.8222C23.9387 62.413 25.1626 66.6314 27.6103 69.4776C30.0581 72.3149 33.5922 73.7313 38.2172 73.7313C39.8491 73.7313 41.3213 73.4842 42.6338 72.99C43.9464 72.4958 44.9663 71.931 45.7024 71.2956V41.5369C43.8799 40.4558 41.7026 39.913 39.175 39.913Z" fill="white"/>
<path d="M111.239 91.876C105.892 91.876 100.925 91.1347 96.3401 89.6521C91.7639 88.1606 87.773 85.9234 84.3674 82.9449C80.9707 79.9708 78.3012 76.2289 76.3501 71.7192C74.4079 67.2007 73.4412 61.9188 73.4412 55.8691C73.4412 49.9297 74.4079 44.8155 76.3501 40.5308C78.3012 36.2374 80.8599 32.7205 84.0304 29.9759C87.2098 27.2224 90.8415 25.1926 94.9211 23.8864C99.0007 22.5715 103.169 21.9096 107.426 21.9096C112.224 21.9096 116.596 22.6333 120.534 24.0806C124.48 25.5279 127.881 27.518 130.733 30.0465C133.593 32.5661 135.814 35.5843 137.402 39.1011C138.998 42.6224 139.797 46.457 139.797 50.6092C139.797 53.6716 138.932 56.0103 137.207 57.6341C135.477 59.258 133.078 60.2949 130.006 60.7406L96.411 65.7533C97.4132 68.7319 99.453 70.9691 102.53 72.4605C105.617 73.9432 109.151 74.6845 113.137 74.6845C116.849 74.6845 120.361 74.2167 123.673 73.2724C126.981 72.3193 129.677 71.2162 131.761 69.9542C133.216 70.8499 134.44 72.1075 135.433 73.7314C136.435 75.3552 136.941 77.0761 136.941 78.8853C136.941 82.9449 135.034 85.9631 131.229 87.94C128.32 89.4844 125.048 90.5214 121.421 91.0641C117.802 91.6025 114.406 91.876 111.239 91.876ZM107.426 38.6952C105.249 38.6952 103.368 39.0614 101.785 39.7895C100.198 40.5088 98.9031 41.431 97.901 42.5606C96.9077 43.6814 96.1627 44.939 95.6661 46.3378C95.1694 47.741 94.8723 49.1619 94.7792 50.6092L118.033 46.8144C117.758 45.014 116.76 43.2137 115.035 41.4134C113.319 39.6042 110.783 38.6952 107.426 38.6952Z" fill="white"/>
<path d="M188.33 87.94C187.062 88.9416 185.208 89.7491 182.761 90.3757C180.313 91.0111 177.546 91.3288 174.459 91.3288C170.921 91.3288 167.861 90.8743 165.272 89.9698C162.691 89.0784 160.908 87.6355 159.915 85.6454C159.099 84.1186 158.123 81.9741 156.988 79.2206C155.853 76.4672 154.651 73.4048 153.388 70.0247C152.119 66.6359 150.807 63.0087 149.45 59.1344C148.089 55.2513 146.794 51.4167 145.565 47.6263C144.346 43.8403 143.233 40.1866 142.231 36.6654C141.237 33.1485 140.422 30.0376 139.783 27.3283C141.06 26.0707 142.763 24.9719 144.891 24.0276C147.02 23.0745 149.352 22.5979 151.898 22.5979C155.064 22.5979 157.667 23.251 159.702 24.5571C161.746 25.8633 163.267 28.3255 164.261 31.935L169.564 52.639C170.566 56.6898 171.52 60.3611 172.42 63.6529C173.329 66.9491 174.007 69.4952 174.459 71.2956H175.133C176.858 64.6237 178.672 57.2282 180.579 49.1089C182.481 40.9897 184.202 33.0073 185.74 25.1573C187.288 24.3453 189.031 23.7188 190.973 23.2687C192.924 22.823 194.809 22.5979 196.631 22.5979C199.797 22.5979 202.471 23.2775 204.648 24.6277C206.821 25.9824 207.912 28.3255 207.912 31.6526C207.912 33.1 207.566 35.2004 206.883 37.9538C206.209 40.7073 205.349 43.8226 204.311 47.2909C203.269 50.7637 202.045 54.4394 200.64 58.3225C199.23 62.1968 197.802 65.9828 196.347 69.6894C194.902 73.3872 193.478 76.8334 192.073 80.0326C190.663 83.2361 189.416 85.8704 188.33 87.94Z" fill="white"/>
<path d="M241.765 21.9096C247.201 21.9096 252.257 22.6112 256.93 24.01C261.6 25.4132 265.608 27.5577 268.956 30.4524C272.313 33.3383 274.943 36.9654 276.849 41.3428C278.752 45.7112 279.705 50.9181 279.705 56.9634C279.705 62.7307 278.889 67.7787 277.257 72.1075C275.625 76.4407 273.311 80.0767 270.322 83.0155C267.329 85.9455 263.724 88.1341 259.502 89.5815C255.29 91.0156 250.603 91.7348 245.437 91.7348C241.534 91.7348 237.907 91.1435 234.564 89.9698V112.439C233.65 112.708 232.196 113.004 230.2 113.321C228.214 113.639 226.178 113.798 224.099 113.798C222.099 113.798 220.307 113.661 218.724 113.392C217.137 113.118 215.802 112.58 214.716 111.768C213.625 110.956 212.809 109.849 212.268 108.45C211.722 107.047 211.452 105.22 211.452 102.961V38.0245C211.452 35.5887 211.971 33.6074 213.013 32.0763C214.05 30.5363 215.478 29.1375 217.287 27.8754C220.099 26.0663 223.589 24.6189 227.752 23.5334C231.925 22.4523 236.595 21.9096 241.765 21.9096ZM242.031 73.6078C251.37 73.6078 256.043 68.0611 256.043 56.9634C256.043 51.1873 254.882 46.9026 252.567 44.1139C250.261 41.3163 246.931 39.9131 242.581 39.9131C240.851 39.9131 239.308 40.1205 237.951 40.5308C236.603 40.9324 235.424 41.4045 234.422 41.9429V71.7015C235.508 72.2443 236.683 72.6988 237.951 73.0606C239.229 73.4269 240.585 73.6078 242.031 73.6078Z" fill="white"/>
<path d="M319.139 91.876C313.791 91.876 308.825 91.1347 304.239 89.6521C299.663 88.1606 295.672 85.9234 292.267 82.9449C288.87 79.9708 286.201 76.2289 284.249 71.7192C282.307 67.2007 281.341 61.9188 281.341 55.8691C281.341 49.9297 282.307 44.8155 284.249 40.5308C286.201 36.2374 288.759 32.7205 291.93 29.9759C295.109 27.2224 298.741 25.1926 302.82 23.8864C306.9 22.5715 311.068 21.9096 315.325 21.9096C320.123 21.9096 324.495 22.6333 328.433 24.0806C332.38 25.5279 335.781 27.518 338.632 30.0465C341.492 32.5661 343.714 35.5843 345.301 39.1011C346.898 42.6224 347.696 46.457 347.696 50.6092C347.696 53.6716 346.831 56.0103 345.106 57.6341C343.377 59.258 340.978 60.2949 337.905 60.7406L304.31 65.7533C305.313 68.7319 307.352 70.9691 310.43 72.4605C313.516 73.9432 317.05 74.6845 321.037 74.6845C324.748 74.6845 328.26 74.2167 331.573 73.2724C334.881 72.3193 337.577 71.2162 339.661 69.9542C341.115 70.8499 342.339 72.1075 343.332 73.7314C344.335 75.3552 344.84 77.0761 344.84 78.8853C344.84 82.9449 342.933 85.9631 339.129 87.94C336.22 89.4844 332.947 90.5214 329.32 91.0641C325.702 91.6025 322.305 91.876 319.139 91.876ZM315.325 38.6952C313.148 38.6952 311.268 39.0614 309.685 39.7895C308.097 40.5088 306.802 41.431 305.8 42.5606C304.807 43.6814 304.062 44.939 303.565 46.3378C303.069 47.741 302.772 49.1619 302.679 50.6092L325.932 46.8144C325.657 45.014 324.66 43.2137 322.935 41.4134C321.218 39.6042 318.682 38.6952 315.325 38.6952Z" fill="white"/>
<path d="M375.157 67.1124C375.157 69.4555 375.902 71.1279 377.392 72.1251C378.891 73.1136 381.002 73.6078 383.724 73.6078C385.081 73.6078 386.483 73.4975 387.928 73.2724C389.383 73.0386 390.651 72.7429 391.742 72.3899C392.558 73.3783 393.258 74.4859 393.852 75.7082C394.442 76.9217 394.739 78.3866 394.739 80.1032C394.739 83.5273 393.445 86.3249 390.855 88.4871C388.274 90.6493 383.724 91.7348 377.197 91.7348C369.215 91.7348 363.069 89.9345 358.768 86.3338C354.462 82.7242 352.312 76.8555 352.312 68.7363V10.8251C353.305 10.5559 354.728 10.2603 356.586 9.94257C358.453 9.62486 360.427 9.466 362.511 9.466C366.493 9.466 369.597 10.1676 371.823 11.5664C374.044 12.9696 375.157 15.9217 375.157 20.4269V29.0933H392.966C393.507 30.0817 394.03 31.3261 394.527 32.8176C395.023 34.3002 395.271 35.9417 395.271 37.742C395.271 40.9103 394.566 43.1916 393.161 44.5904C391.764 45.9804 389.884 46.6732 387.52 46.6732H375.157V67.1124Z" fill="white"/>
</svg>
