<svg width="194" height="57" viewBox="0 0 194 57" fill="none" xmlns="http://www.w3.org/2000/svg">
<path d="M12.44 45.6C10.88 45.6 9.38 45.32 7.94 44.76C6.54 44.2 5.3 43.32 4.22 42.12C3.18 40.92 2.34 39.4 1.7 37.56C1.1 35.72 0.8 33.5 0.8 30.9C0.8 29.74 0.88 28.46 1.04 27.06C1.2 25.62 1.48 24.18 1.88 22.74C2.28 21.3 2.84 19.9 3.56 18.54C4.28 17.18 5.18 15.98 6.26 14.94C7.38 13.86 8.7 13 10.22 12.36C11.78 11.72 13.6 11.4 15.68 11.4C17.68 11.4 19.28 11.76 20.48 12.48C21.72 13.16 22.5 14.36 22.82 16.08C22.9 14.52 22.98 13.16 23.06 12C23.14 10.84 23.2 9.76 23.24 8.76C23.32 7.76 23.4 6.76 23.48 5.76C23.56 4.76 23.64 3.62 23.72 2.34C23.76 1.46 23.86 0.939997 24.02 0.779997C24.1 0.699998 24.2 0.659999 24.32 0.659999C24.44 0.619999 24.66 0.599999 24.98 0.599999H27.32C28.52 0.599999 29.52 0.739999 30.32 1.02C31.12 1.3 31.76 1.68 32.24 2.16C32.72 2.64 33.06 3.2 33.26 3.84C33.46 4.44 33.56 5.08 33.56 5.76C33.56 5.76 33.52 6.26 33.44 7.26C33.36 8.26 33.26 9.6 33.14 11.28C33.02 12.92 32.88 14.8 32.72 16.92C32.56 19.04 32.4 21.24 32.24 23.52C32.08 25.76 31.92 28 31.76 30.24C31.6 32.44 31.44 34.48 31.28 36.36C31.12 38.2 30.98 39.8 30.86 41.16C30.78 42.48 30.72 43.36 30.68 43.8C30.6 44.28 30.5 44.6 30.38 44.76C30.26 44.92 29.92 45 29.36 45H27.2C26.36 45 25.56 44.94 24.8 44.82C24.08 44.66 23.44 44.42 22.88 44.1C22.36 43.74 21.94 43.28 21.62 42.72C21.34 42.12 21.2 41.36 21.2 40.44C20.48 41.96 19.38 43.2 17.9 44.16C16.46 45.12 14.64 45.6 12.44 45.6ZM17.66 19.38C15.62 19.38 14.1 20.28 13.1 22.08C12.14 23.84 11.66 26.22 11.66 29.22C11.66 30.26 11.72 31.28 11.84 32.28C12 33.28 12.26 34.18 12.62 34.98C12.98 35.78 13.46 36.42 14.06 36.9C14.7 37.38 15.5 37.62 16.46 37.62C18.18 37.62 19.62 36.78 20.78 35.1C21.94 33.42 22.52 30.78 22.52 27.18C22.52 26.18 22.46 25.22 22.34 24.3C22.22 23.34 21.98 22.5 21.62 21.78C21.26 21.06 20.76 20.48 20.12 20.04C19.48 19.6 18.66 19.38 17.66 19.38ZM51.8239 45.6C50.0639 45.6 48.3039 45.38 46.5439 44.94C44.8239 44.5 43.2639 43.74 41.8639 42.66C40.5039 41.58 39.3839 40.14 38.5039 38.34C37.6239 36.54 37.1839 34.28 37.1839 31.56C37.1839 30.56 37.2639 29.36 37.4239 27.96C37.5839 26.56 37.8839 25.12 38.3239 23.64C38.8039 22.16 39.4439 20.7 40.2439 19.26C41.0839 17.78 42.1639 16.46 43.4839 15.3C44.8039 14.14 46.4039 13.2 48.2839 12.48C50.1639 11.76 52.4039 11.4 55.0039 11.4C57.0839 11.4 58.8439 11.64 60.2839 12.12C61.7239 12.6 62.8839 13.26 63.7639 14.1C64.6439 14.9 65.2839 15.84 65.6839 16.92C66.0839 18 66.2839 19.16 66.2839 20.4C66.2839 22.24 65.9039 23.8 65.1439 25.08C64.4239 26.36 63.4639 27.44 62.2639 28.32C61.1039 29.16 59.8039 29.82 58.3639 30.3C56.9239 30.78 55.5039 31.16 54.1039 31.44C52.7039 31.68 51.4039 31.84 50.2039 31.92C49.0439 31.96 48.1439 31.98 47.5039 31.98C47.5039 32.74 47.6039 33.5 47.8039 34.26C48.0439 34.98 48.3839 35.62 48.8239 36.18C49.2639 36.74 49.8439 37.2 50.5639 37.56C51.2839 37.92 52.1639 38.1 53.2039 38.1C54.2439 38.1 55.0439 37.94 55.6039 37.62C56.2039 37.26 56.6839 36.88 57.0439 36.48C57.4039 36.04 57.7039 35.66 57.9439 35.34C58.2239 34.98 58.5839 34.8 59.0239 34.8C59.2239 34.8 59.5639 34.86 60.0439 34.98C60.5639 35.06 61.0839 35.26 61.6039 35.58C62.1239 35.9 62.5839 36.34 62.9839 36.9C63.3839 37.46 63.5839 38.18 63.5839 39.06C63.5839 40.22 63.2239 41.22 62.5039 42.06C61.7839 42.9 60.8439 43.58 59.6839 44.1C58.5639 44.62 57.3039 45 55.9039 45.24C54.5039 45.48 53.1439 45.6 51.8239 45.6ZM52.9639 19.38C52.0839 19.38 51.3239 19.64 50.6839 20.16C50.0839 20.64 49.5639 21.26 49.1239 22.02C48.7239 22.78 48.4039 23.62 48.1639 24.54C47.9639 25.46 47.8039 26.34 47.6839 27.18C50.1639 27.14 52.1639 26.72 53.6839 25.92C55.2439 25.12 56.0239 23.98 56.0239 22.5C56.0239 21.7 55.7639 20.98 55.2439 20.34C54.7639 19.7 54.0039 19.38 52.9639 19.38ZM83.6375 37.38C84.1175 35.7 84.5575 34.04 84.9575 32.4C85.3975 30.76 85.8175 29.02 86.2175 27.18C86.6575 25.3 87.1175 23.26 87.5975 21.06C88.1175 18.82 88.7175 16.28 89.3975 13.44C89.5175 12.88 89.6975 12.52 89.9375 12.36C90.1775 12.16 90.6975 12.06 91.4975 12.06C92.0975 12.06 92.8975 12.08 93.8975 12.12C94.8975 12.16 95.8775 12.3 96.8375 12.54C97.7975 12.78 98.6175 13.14 99.2975 13.62C100.018 14.1 100.378 14.76 100.378 15.6C100.378 16.28 100.138 17.38 99.6575 18.9C99.1775 20.42 98.5575 22.16 97.7975 24.12C97.0375 26.04 96.1775 28.06 95.2175 30.18C94.2975 32.3 93.3975 34.3 92.5175 36.18C91.6375 38.06 90.8175 39.72 90.0575 41.16C89.2975 42.56 88.7375 43.54 88.3775 44.1C88.0575 44.54 87.7775 44.8 87.5375 44.88C87.2975 44.96 86.8975 45 86.3375 45H80.9975C80.1575 45 79.4575 44.86 78.8975 44.58C78.3775 44.26 77.9375 43.86 77.5775 43.38C77.2175 42.9 76.9175 42.36 76.6775 41.76C76.4375 41.12 76.2175 40.46 76.0175 39.78C74.8575 35.78 73.8375 32.36 72.9575 29.52C72.1175 26.64 71.3975 24.24 70.7975 22.32C70.1975 20.4 69.7175 18.88 69.3575 17.76C68.9975 16.6 68.7175 15.72 68.5175 15.12C68.3175 14.48 68.1775 14.06 68.0975 13.86C68.0175 13.62 67.9775 13.46 67.9775 13.38C68.0175 13.1 68.2175 12.8 68.5775 12.48C68.9375 12.16 69.3975 12 69.9575 12C71.7975 12 73.3575 12.08 74.6375 12.24C75.9575 12.36 77.0375 12.6 77.8775 12.96C78.7575 13.32 79.4175 13.82 79.8575 14.46C80.3375 15.1 80.6775 15.94 80.8775 16.98C80.9175 17.26 80.9975 17.82 81.1175 18.66C81.2375 19.5 81.3575 20.52 81.4775 21.72C81.6375 22.88 81.8175 24.18 82.0175 25.62C82.2175 27.02 82.3975 28.44 82.5575 29.88C82.7575 31.28 82.9375 32.64 83.0975 33.96C83.2975 35.28 83.4775 36.42 83.6375 37.38ZM124.232 11.4C127.992 11.4 130.812 12.56 132.692 14.88C134.612 17.2 135.572 20.86 135.572 25.86C135.572 28.98 135.212 31.76 134.492 34.2C133.772 36.64 132.772 38.72 131.492 40.44C130.212 42.12 128.712 43.4 126.992 44.28C125.272 45.16 123.412 45.6 121.412 45.6C119.292 45.6 117.632 45.14 116.432 44.22C115.232 43.3 114.292 42 113.612 40.32C113.492 41.76 113.392 42.86 113.312 43.62C113.232 44.38 113.172 44.98 113.132 45.42C113.092 45.9 113.052 46.32 113.012 46.68C113.012 47.04 112.972 47.52 112.892 48.12C112.852 48.72 112.792 49.54 112.712 50.58C112.632 51.62 112.512 53.06 112.352 54.9C112.312 55.38 112.212 55.7 112.052 55.86C111.892 56.02 111.552 56.1 111.032 56.1H108.872C107.632 56.1 106.612 55.96 105.812 55.68C105.052 55.44 104.432 55.08 103.952 54.6C103.512 54.12 103.192 53.52 102.992 52.8C102.832 52.12 102.752 51.32 102.752 50.4C102.752 50 102.812 48.92 102.932 47.16C103.052 45.4 103.192 43.3 103.352 40.86C103.552 38.38 103.752 35.72 103.952 32.88C104.192 30.04 104.412 27.34 104.612 24.78C104.812 22.18 104.972 19.88 105.092 17.88C105.252 15.88 105.372 14.5 105.452 13.74C105.492 12.86 105.592 12.34 105.752 12.18C105.872 12.06 106.192 12 106.712 12H109.052C111.212 12 112.772 12.46 113.732 13.38C114.732 14.26 115.232 15.32 115.232 16.56C116.152 14.72 117.332 13.4 118.772 12.6C120.252 11.8 122.072 11.4 124.232 11.4ZM119.852 19.38C117.812 19.38 116.312 20.26 115.352 22.02C114.392 23.78 113.912 26.18 113.912 29.22C113.912 30.26 113.972 31.28 114.092 32.28C114.252 33.28 114.512 34.18 114.872 34.98C115.232 35.78 115.712 36.42 116.312 36.9C116.952 37.38 117.752 37.62 118.712 37.62C120.432 37.62 121.872 36.78 123.032 35.1C124.192 33.42 124.772 30.78 124.772 27.18C124.772 26.18 124.692 25.22 124.532 24.3C124.412 23.34 124.172 22.5 123.812 21.78C123.452 21.06 122.952 20.48 122.312 20.04C121.672 19.6 120.852 19.38 119.852 19.38ZM154.07 45.6C152.31 45.6 150.55 45.38 148.79 44.94C147.07 44.5 145.51 43.74 144.11 42.66C142.75 41.58 141.63 40.14 140.75 38.34C139.87 36.54 139.43 34.28 139.43 31.56C139.43 30.56 139.51 29.36 139.67 27.96C139.83 26.56 140.13 25.12 140.57 23.64C141.05 22.16 141.69 20.7 142.49 19.26C143.33 17.78 144.41 16.46 145.73 15.3C147.05 14.14 148.65 13.2 150.53 12.48C152.41 11.76 154.65 11.4 157.25 11.4C159.33 11.4 161.09 11.64 162.53 12.12C163.97 12.6 165.13 13.26 166.01 14.1C166.89 14.9 167.53 15.84 167.93 16.92C168.33 18 168.53 19.16 168.53 20.4C168.53 22.24 168.15 23.8 167.39 25.08C166.67 26.36 165.71 27.44 164.51 28.32C163.35 29.16 162.05 29.82 160.61 30.3C159.17 30.78 157.75 31.16 156.35 31.44C154.95 31.68 153.65 31.84 152.45 31.92C151.29 31.96 150.39 31.98 149.75 31.98C149.75 32.74 149.85 33.5 150.05 34.26C150.29 34.98 150.63 35.62 151.07 36.18C151.51 36.74 152.09 37.2 152.81 37.56C153.53 37.92 154.41 38.1 155.45 38.1C156.49 38.1 157.29 37.94 157.85 37.62C158.45 37.26 158.93 36.88 159.29 36.48C159.65 36.04 159.95 35.66 160.19 35.34C160.47 34.98 160.83 34.8 161.27 34.8C161.47 34.8 161.81 34.86 162.29 34.98C162.81 35.06 163.33 35.26 163.85 35.58C164.37 35.9 164.83 36.34 165.23 36.9C165.63 37.46 165.83 38.18 165.83 39.06C165.83 40.22 165.47 41.22 164.75 42.06C164.03 42.9 163.09 43.58 161.93 44.1C160.81 44.62 159.55 45 158.15 45.24C156.75 45.48 155.39 45.6 154.07 45.6ZM155.21 19.38C154.33 19.38 153.57 19.64 152.93 20.16C152.33 20.64 151.81 21.26 151.37 22.02C150.97 22.78 150.65 23.62 150.41 24.54C150.21 25.46 150.05 26.34 149.93 27.18C152.41 27.14 154.41 26.72 155.93 25.92C157.49 25.12 158.27 23.98 158.27 22.5C158.27 21.7 158.01 20.98 157.49 20.34C157.01 19.7 156.25 19.38 155.21 19.38ZM185.044 20.1C184.924 21.62 184.784 23.12 184.624 24.6C184.504 26.08 184.384 27.48 184.264 28.8C184.144 30.12 184.044 31.3 183.964 32.34C183.924 33.38 183.904 34.18 183.904 34.74C183.904 35.78 184.024 36.48 184.264 36.84C184.504 37.16 184.904 37.32 185.464 37.32C185.904 37.32 186.284 37.24 186.604 37.08C186.924 36.92 187.224 36.74 187.504 36.54C187.784 36.34 188.024 36.16 188.224 36C188.464 35.84 188.724 35.76 189.004 35.76C189.284 35.76 189.544 35.92 189.784 36.24C190.024 36.56 190.144 37.3 190.144 38.46C190.144 40.66 189.544 42.4 188.344 43.68C187.144 44.96 185.084 45.6 182.164 45.6C179.284 45.6 177.144 44.94 175.744 43.62C174.384 42.26 173.704 40.2 173.704 37.44C173.704 36.84 173.724 36.14 173.764 35.34C173.844 34.5 173.944 33.42 174.064 32.1C174.184 30.78 174.324 29.16 174.484 27.24C174.684 25.32 174.884 22.94 175.084 20.1H171.904C171.584 20.1 171.384 20.04 171.304 19.92C171.264 19.76 171.244 19.54 171.244 19.26L171.424 16.2C171.464 15.68 171.524 15.18 171.604 14.7C171.724 14.18 171.924 13.72 172.204 13.32C172.524 12.92 172.964 12.6 173.524 12.36C174.084 12.12 174.824 12 175.744 12C176.024 11.28 176.344 10.42 176.704 9.42C177.064 8.42 177.424 7.46 177.784 6.54C178.144 5.58 178.484 4.78 178.804 4.14C179.164 3.5 179.484 3.18 179.764 3.18H181.504C183.184 3.18 184.344 3.7 184.984 4.74C185.624 5.78 185.944 7.02 185.944 8.46C185.944 9.26 185.884 10.44 185.764 12H192.064C192.704 12 193.024 12.28 193.024 12.84L192.784 16.08C192.704 17.28 192.364 18.26 191.764 19.02C191.204 19.74 190.024 20.1 188.224 20.1H185.044Z" fill="#FCAD0B"/>
</svg>
