<svg xmlns="http://www.w3.org/2000/svg" xmlns:xlink="http://www.w3.org/1999/xlink" width="418" zoomAndPan="magnify" viewBox="0 0 313.5 22.5" height="30" preserveAspectRatio="xMidYMid meet" version="1.0"><defs><filter x="0%" y="0%" width="100%" height="100%" id="9578fec2b5"><feColorMatrix values="0 0 0 0 1 0 0 0 0 1 0 0 0 0 1 0 0 0 1 0" color-interpolation-filters="sRGB"/></filter><g/><mask id="00480c1e27"><g filter="url(#9578fec2b5)"><rect x="-31.35" width="376.2" fill="#000000" y="-2.25" height="26.999999" fill-opacity="0.8"/></g></mask><clipPath id="286eb877a6"><path d="M 0.328125 2 L 7 2 L 7 10 L 0.328125 10 Z M 0.328125 2 " clip-rule="nonzero"/></clipPath><clipPath id="e32eb293d6"><path d="M 137 0.398438 L 145 0.398438 L 145 10 L 137 10 Z M 137 0.398438 " clip-rule="nonzero"/></clipPath><clipPath id="14186f3d4f"><rect x="0" width="168" y="0" height="13"/></clipPath><clipPath id="74235aae00"><path d="M 185 11 L 309.847656 11 L 309.847656 14 L 185 14 Z M 185 11 " clip-rule="nonzero"/></clipPath></defs><g mask="url(#00480c1e27)"><g transform="matrix(1, 0, 0, 1, 8, 5)"><g clip-path="url(#14186f3d4f)"><g clip-path="url(#286eb877a6)"><g fill="#fcad0b" fill-opacity="1"><g transform="translate(0.428657, 9.244256)"><g><path d="M 5.71875 -4.796875 C 5.476562 -5.078125 5.195312 -5.289062 4.875 -5.4375 C 4.550781 -5.59375 4.222656 -5.671875 3.890625 -5.671875 C 3.472656 -5.671875 3.085938 -5.570312 2.734375 -5.375 C 2.390625 -5.175781 2.117188 -4.898438 1.921875 -4.546875 C 1.722656 -4.203125 1.625 -3.820312 1.625 -3.40625 C 1.625 -2.988281 1.722656 -2.601562 1.921875 -2.25 C 2.117188 -1.894531 2.390625 -1.617188 2.734375 -1.421875 C 3.085938 -1.222656 3.472656 -1.125 3.890625 -1.125 C 4.210938 -1.125 4.535156 -1.191406 4.859375 -1.328125 C 5.179688 -1.472656 5.46875 -1.671875 5.71875 -1.921875 L 6.484375 -1.0625 C 6.128906 -0.707031 5.71875 -0.425781 5.25 -0.21875 C 4.78125 -0.0078125 4.300781 0.09375 3.8125 0.09375 C 3.164062 0.09375 2.570312 -0.0546875 2.03125 -0.359375 C 1.488281 -0.671875 1.0625 -1.09375 0.75 -1.625 C 0.445312 -2.15625 0.296875 -2.742188 0.296875 -3.390625 C 0.296875 -4.023438 0.453125 -4.601562 0.765625 -5.125 C 1.085938 -5.65625 1.519531 -6.070312 2.0625 -6.375 C 2.601562 -6.675781 3.203125 -6.828125 3.859375 -6.828125 C 4.347656 -6.828125 4.820312 -6.726562 5.28125 -6.53125 C 5.75 -6.34375 6.144531 -6.082031 6.46875 -5.75 Z M 5.71875 -4.796875 "/></g></g></g></g><g fill="#fcad0b" fill-opacity="1"><g transform="translate(8.583256, 9.244256)"><g><path d="M 3.890625 -6.828125 C 4.554688 -6.828125 5.164062 -6.675781 5.71875 -6.375 C 6.269531 -6.070312 6.703125 -5.65625 7.015625 -5.125 C 7.328125 -4.601562 7.484375 -4.023438 7.484375 -3.390625 C 7.484375 -2.742188 7.328125 -2.15625 7.015625 -1.625 C 6.703125 -1.09375 6.269531 -0.671875 5.71875 -0.359375 C 5.164062 -0.0546875 4.554688 0.09375 3.890625 0.09375 C 3.222656 0.09375 2.613281 -0.0546875 2.0625 -0.359375 C 1.519531 -0.671875 1.085938 -1.09375 0.765625 -1.625 C 0.453125 -2.15625 0.296875 -2.742188 0.296875 -3.390625 C 0.296875 -4.023438 0.453125 -4.601562 0.765625 -5.125 C 1.085938 -5.65625 1.519531 -6.070312 2.0625 -6.375 C 2.613281 -6.675781 3.222656 -6.828125 3.890625 -6.828125 Z M 3.921875 -5.671875 C 3.503906 -5.671875 3.117188 -5.570312 2.765625 -5.375 C 2.410156 -5.175781 2.128906 -4.898438 1.921875 -4.546875 C 1.722656 -4.191406 1.625 -3.804688 1.625 -3.390625 C 1.625 -2.960938 1.726562 -2.570312 1.9375 -2.21875 C 2.144531 -1.863281 2.421875 -1.582031 2.765625 -1.375 C 3.117188 -1.164062 3.503906 -1.0625 3.921875 -1.0625 C 4.316406 -1.0625 4.6875 -1.164062 5.03125 -1.375 C 5.382812 -1.582031 5.660156 -1.863281 5.859375 -2.21875 C 6.066406 -2.570312 6.171875 -2.960938 6.171875 -3.390625 C 6.171875 -3.804688 6.066406 -4.191406 5.859375 -4.546875 C 5.660156 -4.898438 5.382812 -5.175781 5.03125 -5.375 C 4.6875 -5.570312 4.316406 -5.671875 3.921875 -5.671875 Z M 3.921875 -5.671875 "/></g></g></g><g fill="#fcad0b" fill-opacity="1"><g transform="translate(17.827061, 9.244256)"><g><path d="M 5.53125 -2.09375 L 5.53125 -6.75 L 6.78125 -6.75 L 6.78125 0 L 5.5625 0 L 2.09375 -4.640625 L 2.09375 0 L 0.828125 0 L 0.828125 -6.75 L 2.046875 -6.75 Z M 5.53125 -2.09375 "/></g></g></g><g fill="#fcad0b" fill-opacity="1"><g transform="translate(26.887729, 9.244256)"><g><path d="M 0.828125 0 L 0.828125 -6.75 L 2.125 -6.75 L 2.125 -3.859375 L 5.484375 -3.859375 L 5.484375 -6.75 L 6.78125 -6.75 L 6.78125 0 L 5.484375 0 L 5.484375 -2.734375 L 2.125 -2.734375 L 2.125 0 Z M 0.828125 0 "/></g></g></g><g fill="#fcad0b" fill-opacity="1"><g transform="translate(35.948394, 9.244256)"><g><path d="M 0.828125 0 L 0.828125 -6.75 L 5.78125 -6.75 L 5.78125 -5.625 L 2.125 -5.625 L 2.125 -3.953125 L 5.40625 -3.953125 L 5.40625 -2.828125 L 2.125 -2.828125 L 2.125 -1.125 L 5.890625 -1.125 L 5.890625 0 Z M 0.828125 0 "/></g></g></g><g fill="#fcad0b" fill-opacity="1"><g transform="translate(43.765628, 9.244256)"><g><path d="M 6.484375 -1.0625 C 6.160156 -0.75 5.796875 -0.488281 5.390625 -0.28125 C 4.992188 -0.0820312 4.582031 0.0351562 4.15625 0.078125 L 3.984375 0.515625 C 4.253906 0.554688 4.453125 0.644531 4.578125 0.78125 C 4.710938 0.925781 4.78125 1.09375 4.78125 1.28125 C 4.78125 1.5625 4.671875 1.773438 4.453125 1.921875 C 4.242188 2.078125 3.972656 2.15625 3.640625 2.15625 C 3.316406 2.15625 2.992188 2.085938 2.671875 1.953125 L 2.90625 1.28125 C 3.101562 1.351562 3.285156 1.390625 3.453125 1.390625 C 3.578125 1.390625 3.671875 1.363281 3.734375 1.3125 C 3.804688 1.269531 3.84375 1.21875 3.84375 1.15625 C 3.84375 1.082031 3.800781 1.023438 3.71875 0.984375 C 3.632812 0.941406 3.515625 0.921875 3.359375 0.921875 L 3.078125 0.921875 L 3.359375 0.0625 C 2.773438 0 2.25 -0.191406 1.78125 -0.515625 C 1.320312 -0.835938 0.957031 -1.25 0.6875 -1.75 C 0.425781 -2.25 0.296875 -2.796875 0.296875 -3.390625 C 0.296875 -4.023438 0.453125 -4.601562 0.765625 -5.125 C 1.085938 -5.65625 1.519531 -6.070312 2.0625 -6.375 C 2.601562 -6.675781 3.203125 -6.828125 3.859375 -6.828125 C 4.347656 -6.828125 4.820312 -6.726562 5.28125 -6.53125 C 5.75 -6.34375 6.144531 -6.082031 6.46875 -5.75 L 5.71875 -4.796875 C 5.476562 -5.078125 5.195312 -5.289062 4.875 -5.4375 C 4.550781 -5.59375 4.222656 -5.671875 3.890625 -5.671875 C 3.472656 -5.671875 3.085938 -5.570312 2.734375 -5.375 C 2.390625 -5.175781 2.117188 -4.898438 1.921875 -4.546875 C 1.722656 -4.203125 1.625 -3.820312 1.625 -3.40625 C 1.625 -2.988281 1.722656 -2.601562 1.921875 -2.25 C 2.117188 -1.894531 2.390625 -1.617188 2.734375 -1.421875 C 3.085938 -1.222656 3.472656 -1.125 3.890625 -1.125 C 4.210938 -1.125 4.535156 -1.191406 4.859375 -1.328125 C 5.179688 -1.472656 5.46875 -1.671875 5.71875 -1.921875 Z M 6.484375 -1.0625 "/></g></g></g><g fill="#fcad0b" fill-opacity="1"><g transform="translate(51.920229, 9.244256)"><g><path d="M 7.21875 0 L 5.828125 0 L 5.21875 -1.421875 L 1.921875 -1.421875 L 1.328125 0 L -0.015625 0 L 2.953125 -6.75 L 4.296875 -6.75 Z M 3.59375 -5.375 L 2.390625 -2.53125 L 4.765625 -2.53125 Z M 3.59375 -5.375 "/></g></g></g><g fill="#fcad0b" fill-opacity="1"><g transform="translate(60.56642, 9.244256)"><g/></g></g><g fill="#fcad0b" fill-opacity="1"><g transform="translate(64.614807, 9.244256)"><g><path d="M 5.53125 -2.09375 L 5.53125 -6.75 L 6.78125 -6.75 L 6.78125 0 L 5.5625 0 L 2.09375 -4.640625 L 2.09375 0 L 0.828125 0 L 0.828125 -6.75 L 2.046875 -6.75 Z M 5.53125 -2.09375 "/></g></g></g><g fill="#fcad0b" fill-opacity="1"><g transform="translate(73.675476, 9.244256)"><g><path d="M 3.890625 -6.828125 C 4.554688 -6.828125 5.164062 -6.675781 5.71875 -6.375 C 6.269531 -6.070312 6.703125 -5.65625 7.015625 -5.125 C 7.328125 -4.601562 7.484375 -4.023438 7.484375 -3.390625 C 7.484375 -2.742188 7.328125 -2.15625 7.015625 -1.625 C 6.703125 -1.09375 6.269531 -0.671875 5.71875 -0.359375 C 5.164062 -0.0546875 4.554688 0.09375 3.890625 0.09375 C 3.222656 0.09375 2.613281 -0.0546875 2.0625 -0.359375 C 1.519531 -0.671875 1.085938 -1.09375 0.765625 -1.625 C 0.453125 -2.15625 0.296875 -2.742188 0.296875 -3.390625 C 0.296875 -4.023438 0.453125 -4.601562 0.765625 -5.125 C 1.085938 -5.65625 1.519531 -6.070312 2.0625 -6.375 C 2.613281 -6.675781 3.222656 -6.828125 3.890625 -6.828125 Z M 3.921875 -5.671875 C 3.503906 -5.671875 3.117188 -5.570312 2.765625 -5.375 C 2.410156 -5.175781 2.128906 -4.898438 1.921875 -4.546875 C 1.722656 -4.191406 1.625 -3.804688 1.625 -3.390625 C 1.625 -2.960938 1.726562 -2.570312 1.9375 -2.21875 C 2.144531 -1.863281 2.421875 -1.582031 2.765625 -1.375 C 3.117188 -1.164062 3.503906 -1.0625 3.921875 -1.0625 C 4.316406 -1.0625 4.6875 -1.164062 5.03125 -1.375 C 5.382812 -1.582031 5.660156 -1.863281 5.859375 -2.21875 C 6.066406 -2.570312 6.171875 -2.960938 6.171875 -3.390625 C 6.171875 -3.804688 6.066406 -4.191406 5.859375 -4.546875 C 5.660156 -4.898438 5.382812 -5.175781 5.03125 -5.375 C 4.6875 -5.570312 4.316406 -5.671875 3.921875 -5.671875 Z M 3.921875 -5.671875 "/></g></g></g><g fill="#fcad0b" fill-opacity="1"><g transform="translate(82.919283, 9.244256)"><g><path d="M 5.078125 -5.015625 C 4.722656 -5.222656 4.363281 -5.382812 4 -5.5 C 3.644531 -5.613281 3.328125 -5.671875 3.046875 -5.671875 C 2.734375 -5.671875 2.488281 -5.613281 2.3125 -5.5 C 2.132812 -5.382812 2.046875 -5.222656 2.046875 -5.015625 C 2.046875 -4.835938 2.109375 -4.6875 2.234375 -4.5625 C 2.359375 -4.4375 2.515625 -4.332031 2.703125 -4.25 C 2.890625 -4.164062 3.148438 -4.078125 3.484375 -3.984375 C 3.941406 -3.847656 4.316406 -3.710938 4.609375 -3.578125 C 4.898438 -3.441406 5.144531 -3.238281 5.34375 -2.96875 C 5.550781 -2.707031 5.65625 -2.363281 5.65625 -1.9375 C 5.65625 -1.53125 5.546875 -1.171875 5.328125 -0.859375 C 5.109375 -0.554688 4.800781 -0.320312 4.40625 -0.15625 C 4.019531 0 3.578125 0.078125 3.078125 0.078125 C 2.546875 0.078125 2.03125 -0.0195312 1.53125 -0.21875 C 1.03125 -0.414062 0.59375 -0.675781 0.21875 -1 L 0.765625 -2.109375 C 1.097656 -1.785156 1.476562 -1.535156 1.90625 -1.359375 C 2.332031 -1.179688 2.726562 -1.09375 3.09375 -1.09375 C 3.457031 -1.09375 3.738281 -1.160156 3.9375 -1.296875 C 4.144531 -1.429688 4.25 -1.617188 4.25 -1.859375 C 4.25 -2.054688 4.1875 -2.21875 4.0625 -2.34375 C 3.9375 -2.46875 3.773438 -2.566406 3.578125 -2.640625 C 3.390625 -2.710938 3.128906 -2.800781 2.796875 -2.90625 C 2.335938 -3.039062 1.960938 -3.171875 1.671875 -3.296875 C 1.390625 -3.421875 1.144531 -3.613281 0.9375 -3.875 C 0.726562 -4.132812 0.625 -4.476562 0.625 -4.90625 C 0.625 -5.300781 0.726562 -5.644531 0.9375 -5.9375 C 1.144531 -6.226562 1.441406 -6.453125 1.828125 -6.609375 C 2.210938 -6.773438 2.65625 -6.859375 3.15625 -6.859375 C 3.59375 -6.859375 4.023438 -6.789062 4.453125 -6.65625 C 4.878906 -6.53125 5.257812 -6.359375 5.59375 -6.140625 Z M 5.078125 -5.015625 "/></g></g></g><g fill="#fcad0b" fill-opacity="1"><g transform="translate(90.418435, 9.244256)"><g><path d="M 5.078125 -5.015625 C 4.722656 -5.222656 4.363281 -5.382812 4 -5.5 C 3.644531 -5.613281 3.328125 -5.671875 3.046875 -5.671875 C 2.734375 -5.671875 2.488281 -5.613281 2.3125 -5.5 C 2.132812 -5.382812 2.046875 -5.222656 2.046875 -5.015625 C 2.046875 -4.835938 2.109375 -4.6875 2.234375 -4.5625 C 2.359375 -4.4375 2.515625 -4.332031 2.703125 -4.25 C 2.890625 -4.164062 3.148438 -4.078125 3.484375 -3.984375 C 3.941406 -3.847656 4.316406 -3.710938 4.609375 -3.578125 C 4.898438 -3.441406 5.144531 -3.238281 5.34375 -2.96875 C 5.550781 -2.707031 5.65625 -2.363281 5.65625 -1.9375 C 5.65625 -1.53125 5.546875 -1.171875 5.328125 -0.859375 C 5.109375 -0.554688 4.800781 -0.320312 4.40625 -0.15625 C 4.019531 0 3.578125 0.078125 3.078125 0.078125 C 2.546875 0.078125 2.03125 -0.0195312 1.53125 -0.21875 C 1.03125 -0.414062 0.59375 -0.675781 0.21875 -1 L 0.765625 -2.109375 C 1.097656 -1.785156 1.476562 -1.535156 1.90625 -1.359375 C 2.332031 -1.179688 2.726562 -1.09375 3.09375 -1.09375 C 3.457031 -1.09375 3.738281 -1.160156 3.9375 -1.296875 C 4.144531 -1.429688 4.25 -1.617188 4.25 -1.859375 C 4.25 -2.054688 4.1875 -2.21875 4.0625 -2.34375 C 3.9375 -2.46875 3.773438 -2.566406 3.578125 -2.640625 C 3.390625 -2.710938 3.128906 -2.800781 2.796875 -2.90625 C 2.335938 -3.039062 1.960938 -3.171875 1.671875 -3.296875 C 1.390625 -3.421875 1.144531 -3.613281 0.9375 -3.875 C 0.726562 -4.132812 0.625 -4.476562 0.625 -4.90625 C 0.625 -5.300781 0.726562 -5.644531 0.9375 -5.9375 C 1.144531 -6.226562 1.441406 -6.453125 1.828125 -6.609375 C 2.210938 -6.773438 2.65625 -6.859375 3.15625 -6.859375 C 3.59375 -6.859375 4.023438 -6.789062 4.453125 -6.65625 C 4.878906 -6.53125 5.257812 -6.359375 5.59375 -6.140625 Z M 5.078125 -5.015625 "/></g></g></g><g fill="#fcad0b" fill-opacity="1"><g transform="translate(97.917587, 9.244256)"><g><path d="M 3.890625 -6.828125 C 4.554688 -6.828125 5.164062 -6.675781 5.71875 -6.375 C 6.269531 -6.070312 6.703125 -5.65625 7.015625 -5.125 C 7.328125 -4.601562 7.484375 -4.023438 7.484375 -3.390625 C 7.484375 -2.742188 7.328125 -2.15625 7.015625 -1.625 C 6.703125 -1.09375 6.269531 -0.671875 5.71875 -0.359375 C 5.164062 -0.0546875 4.554688 0.09375 3.890625 0.09375 C 3.222656 0.09375 2.613281 -0.0546875 2.0625 -0.359375 C 1.519531 -0.671875 1.085938 -1.09375 0.765625 -1.625 C 0.453125 -2.15625 0.296875 -2.742188 0.296875 -3.390625 C 0.296875 -4.023438 0.453125 -4.601562 0.765625 -5.125 C 1.085938 -5.65625 1.519531 -6.070312 2.0625 -6.375 C 2.613281 -6.675781 3.222656 -6.828125 3.890625 -6.828125 Z M 3.921875 -5.671875 C 3.503906 -5.671875 3.117188 -5.570312 2.765625 -5.375 C 2.410156 -5.175781 2.128906 -4.898438 1.921875 -4.546875 C 1.722656 -4.191406 1.625 -3.804688 1.625 -3.390625 C 1.625 -2.960938 1.726562 -2.570312 1.9375 -2.21875 C 2.144531 -1.863281 2.421875 -1.582031 2.765625 -1.375 C 3.117188 -1.164062 3.503906 -1.0625 3.921875 -1.0625 C 4.316406 -1.0625 4.6875 -1.164062 5.03125 -1.375 C 5.382812 -1.582031 5.660156 -1.863281 5.859375 -2.21875 C 6.066406 -2.570312 6.171875 -2.960938 6.171875 -3.390625 C 6.171875 -3.804688 6.066406 -4.191406 5.859375 -4.546875 C 5.660156 -4.898438 5.382812 -5.175781 5.03125 -5.375 C 4.6875 -5.570312 4.316406 -5.671875 3.921875 -5.671875 Z M 3.921875 -5.671875 "/></g></g></g><g fill="#fcad0b" fill-opacity="1"><g transform="translate(107.161395, 9.244256)"><g/></g></g><g fill="#fcad0b" fill-opacity="1"><g transform="translate(111.209782, 9.244256)"><g><path d="M 5.53125 -2.09375 L 5.53125 -6.75 L 6.78125 -6.75 L 6.78125 0 L 5.5625 0 L 2.09375 -4.640625 L 2.09375 0 L 0.828125 0 L 0.828125 -6.75 L 2.046875 -6.75 Z M 5.53125 -2.09375 "/></g></g></g><g fill="#fcad0b" fill-opacity="1"><g transform="translate(120.270445, 9.244256)"><g><path d="M 0.828125 0 L 0.828125 -6.75 L 5.78125 -6.75 L 5.78125 -5.625 L 2.125 -5.625 L 2.125 -3.953125 L 5.40625 -3.953125 L 5.40625 -2.828125 L 2.125 -2.828125 L 2.125 -1.125 L 5.890625 -1.125 L 5.890625 0 Z M 0.828125 0 "/></g></g></g><g fill="#fcad0b" fill-opacity="1"><g transform="translate(128.087681, 9.244256)"><g><path d="M 5.40625 -3.359375 L 6.53125 -3.359375 L 6.53125 -0.796875 C 6.175781 -0.523438 5.757812 -0.304688 5.28125 -0.140625 C 4.800781 0.015625 4.328125 0.09375 3.859375 0.09375 C 3.203125 0.09375 2.601562 -0.0546875 2.0625 -0.359375 C 1.519531 -0.671875 1.085938 -1.09375 0.765625 -1.625 C 0.453125 -2.15625 0.296875 -2.742188 0.296875 -3.390625 C 0.296875 -4.023438 0.457031 -4.601562 0.78125 -5.125 C 1.101562 -5.65625 1.539062 -6.070312 2.09375 -6.375 C 2.65625 -6.675781 3.269531 -6.828125 3.9375 -6.828125 C 4.425781 -6.828125 4.90625 -6.738281 5.375 -6.5625 C 5.84375 -6.394531 6.242188 -6.160156 6.578125 -5.859375 L 5.859375 -4.90625 C 5.597656 -5.15625 5.296875 -5.34375 4.953125 -5.46875 C 4.617188 -5.601562 4.28125 -5.671875 3.9375 -5.671875 C 3.519531 -5.671875 3.128906 -5.570312 2.765625 -5.375 C 2.410156 -5.175781 2.128906 -4.898438 1.921875 -4.546875 C 1.722656 -4.191406 1.625 -3.804688 1.625 -3.390625 C 1.625 -2.960938 1.726562 -2.570312 1.9375 -2.21875 C 2.144531 -1.863281 2.425781 -1.582031 2.78125 -1.375 C 3.132812 -1.164062 3.523438 -1.0625 3.953125 -1.0625 C 4.179688 -1.0625 4.421875 -1.097656 4.671875 -1.171875 C 4.929688 -1.253906 5.175781 -1.363281 5.40625 -1.5 Z M 5.40625 -3.359375 "/></g></g></g><g clip-path="url(#e32eb293d6)"><g fill="#fcad0b" fill-opacity="1"><g transform="translate(136.733873, 9.244256)"><g><path d="M 3.890625 -6.828125 C 4.554688 -6.828125 5.164062 -6.675781 5.71875 -6.375 C 6.269531 -6.070312 6.703125 -5.65625 7.015625 -5.125 C 7.328125 -4.601562 7.484375 -4.023438 7.484375 -3.390625 C 7.484375 -2.742188 7.328125 -2.15625 7.015625 -1.625 C 6.703125 -1.09375 6.269531 -0.671875 5.71875 -0.359375 C 5.164062 -0.0546875 4.554688 0.09375 3.890625 0.09375 C 3.222656 0.09375 2.613281 -0.0546875 2.0625 -0.359375 C 1.519531 -0.671875 1.085938 -1.09375 0.765625 -1.625 C 0.453125 -2.15625 0.296875 -2.742188 0.296875 -3.390625 C 0.296875 -4.023438 0.453125 -4.601562 0.765625 -5.125 C 1.085938 -5.65625 1.519531 -6.070312 2.0625 -6.375 C 2.613281 -6.675781 3.222656 -6.828125 3.890625 -6.828125 Z M 3.921875 -5.671875 C 3.503906 -5.671875 3.117188 -5.570312 2.765625 -5.375 C 2.410156 -5.175781 2.128906 -4.898438 1.921875 -4.546875 C 1.722656 -4.191406 1.625 -3.804688 1.625 -3.390625 C 1.625 -2.960938 1.726562 -2.570312 1.9375 -2.21875 C 2.144531 -1.863281 2.421875 -1.582031 2.765625 -1.375 C 3.117188 -1.164062 3.503906 -1.0625 3.921875 -1.0625 C 4.316406 -1.0625 4.6875 -1.164062 5.03125 -1.375 C 5.382812 -1.582031 5.660156 -1.863281 5.859375 -2.21875 C 6.066406 -2.570312 6.171875 -2.960938 6.171875 -3.390625 C 6.171875 -3.804688 6.066406 -4.191406 5.859375 -4.546875 C 5.660156 -4.898438 5.382812 -5.175781 5.03125 -5.375 C 4.6875 -5.570312 4.316406 -5.671875 3.921875 -5.671875 Z M 3.265625 -7.390625 L 4.265625 -8.78125 L 5.46875 -8.28125 L 4.234375 -7.296875 Z M 3.265625 -7.390625 "/></g></g></g></g><g fill="#fcad0b" fill-opacity="1"><g transform="translate(145.977674, 9.244256)"><g><path d="M 5.71875 -4.796875 C 5.476562 -5.078125 5.195312 -5.289062 4.875 -5.4375 C 4.550781 -5.59375 4.222656 -5.671875 3.890625 -5.671875 C 3.472656 -5.671875 3.085938 -5.570312 2.734375 -5.375 C 2.390625 -5.175781 2.117188 -4.898438 1.921875 -4.546875 C 1.722656 -4.203125 1.625 -3.820312 1.625 -3.40625 C 1.625 -2.988281 1.722656 -2.601562 1.921875 -2.25 C 2.117188 -1.894531 2.390625 -1.617188 2.734375 -1.421875 C 3.085938 -1.222656 3.472656 -1.125 3.890625 -1.125 C 4.210938 -1.125 4.535156 -1.191406 4.859375 -1.328125 C 5.179688 -1.472656 5.46875 -1.671875 5.71875 -1.921875 L 6.484375 -1.0625 C 6.128906 -0.707031 5.71875 -0.425781 5.25 -0.21875 C 4.78125 -0.0078125 4.300781 0.09375 3.8125 0.09375 C 3.164062 0.09375 2.570312 -0.0546875 2.03125 -0.359375 C 1.488281 -0.671875 1.0625 -1.09375 0.75 -1.625 C 0.445312 -2.15625 0.296875 -2.742188 0.296875 -3.390625 C 0.296875 -4.023438 0.453125 -4.601562 0.765625 -5.125 C 1.085938 -5.65625 1.519531 -6.070312 2.0625 -6.375 C 2.601562 -6.675781 3.203125 -6.828125 3.859375 -6.828125 C 4.347656 -6.828125 4.820312 -6.726562 5.28125 -6.53125 C 5.75 -6.34375 6.144531 -6.082031 6.46875 -5.75 Z M 5.71875 -4.796875 "/></g></g></g><g fill="#fcad0b" fill-opacity="1"><g transform="translate(154.132275, 9.244256)"><g><path d="M 0.828125 0 L 0.828125 -6.75 L 2.125 -6.75 L 2.125 0 Z M 0.828125 0 "/></g></g></g><g fill="#fcad0b" fill-opacity="1"><g transform="translate(158.527661, 9.244256)"><g><path d="M 3.890625 -6.828125 C 4.554688 -6.828125 5.164062 -6.675781 5.71875 -6.375 C 6.269531 -6.070312 6.703125 -5.65625 7.015625 -5.125 C 7.328125 -4.601562 7.484375 -4.023438 7.484375 -3.390625 C 7.484375 -2.742188 7.328125 -2.15625 7.015625 -1.625 C 6.703125 -1.09375 6.269531 -0.671875 5.71875 -0.359375 C 5.164062 -0.0546875 4.554688 0.09375 3.890625 0.09375 C 3.222656 0.09375 2.613281 -0.0546875 2.0625 -0.359375 C 1.519531 -0.671875 1.085938 -1.09375 0.765625 -1.625 C 0.453125 -2.15625 0.296875 -2.742188 0.296875 -3.390625 C 0.296875 -4.023438 0.453125 -4.601562 0.765625 -5.125 C 1.085938 -5.65625 1.519531 -6.070312 2.0625 -6.375 C 2.613281 -6.675781 3.222656 -6.828125 3.890625 -6.828125 Z M 3.921875 -5.671875 C 3.503906 -5.671875 3.117188 -5.570312 2.765625 -5.375 C 2.410156 -5.175781 2.128906 -4.898438 1.921875 -4.546875 C 1.722656 -4.191406 1.625 -3.804688 1.625 -3.390625 C 1.625 -2.960938 1.726562 -2.570312 1.9375 -2.21875 C 2.144531 -1.863281 2.421875 -1.582031 2.765625 -1.375 C 3.117188 -1.164062 3.503906 -1.0625 3.921875 -1.0625 C 4.316406 -1.0625 4.6875 -1.164062 5.03125 -1.375 C 5.382812 -1.582031 5.660156 -1.863281 5.859375 -2.21875 C 6.066406 -2.570312 6.171875 -2.960938 6.171875 -3.390625 C 6.171875 -3.804688 6.066406 -4.191406 5.859375 -4.546875 C 5.660156 -4.898438 5.382812 -5.175781 5.03125 -5.375 C 4.6875 -5.570312 4.316406 -5.671875 3.921875 -5.671875 Z M 3.921875 -5.671875 "/></g></g></g></g></g></g><g clip-path="url(#74235aae00)"><path stroke-linecap="butt" transform="matrix(0.733696, 0, 0, 0.733696, 186.02729, 11.569427)" fill="none" stroke-linejoin="miter" d="M 0.0000733902 1.002133 L 168.06513 1.002133 " stroke="#fcad0b" stroke-width="2" stroke-opacity="1" stroke-miterlimit="4"/></g></svg>