<svg xmlns="http://www.w3.org/2000/svg" xmlns:xlink="http://www.w3.org/1999/xlink" width="377" zoomAndPan="magnify" viewBox="0 0 282.75 17.999999" height="24" preserveAspectRatio="xMidYMid meet" version="1.0"><defs><filter x="0%" y="0%" width="100%" height="100%" id="b81c8c4ab3"><feColorMatrix values="0 0 0 0 1 0 0 0 0 1 0 0 0 0 1 0 0 0 1 0" color-interpolation-filters="sRGB"/></filter><g/><mask id="9647470b6f"><g filter="url(#b81c8c4ab3)"><rect x="-28.275" width="339.3" fill="#000000" y="-1.8" height="21.599999" fill-opacity="0.8"/></g></mask><clipPath id="adf7d3a4fd"><path d="M 0.316406 1 L 7 1 L 7 8 L 0.316406 8 Z M 0.316406 1 " clip-rule="nonzero"/></clipPath><clipPath id="f97f6348ac"><rect x="0" width="93" y="0" height="10"/></clipPath><clipPath id="a50f13b78c"><path d="M 95 0.0078125 L 282.5 0.0078125 L 282.5 17.992188 L 95 17.992188 Z M 95 0.0078125 " clip-rule="nonzero"/></clipPath></defs><g mask="url(#9647470b6f)"><g transform="matrix(1, 0, 0, 1, 4, 4)"><g clip-path="url(#f97f6348ac)"><g clip-path="url(#adf7d3a4fd)"><g fill="#fcad0b" fill-opacity="1"><g transform="translate(0.815641, 7.509387)"><g><path d="M 6 0 L 4.84375 0 L 4.359375 -1.1875 L 1.609375 -1.1875 L 1.109375 0 L -0.015625 0 L 2.453125 -5.625 L 3.578125 -5.625 Z M 2.984375 -4.46875 L 1.984375 -2.109375 L 3.96875 -2.109375 Z M 2.984375 -4.46875 "/></g></g></g></g><g fill="#fcad0b" fill-opacity="1"><g transform="translate(8.018567, 7.509387)"><g><path d="M 0.6875 0 L 0.6875 -5.625 L 1.921875 -5.625 L 3.78125 -2 L 5.625 -5.625 L 6.859375 -5.625 L 6.859375 0 L 5.875 0 L 5.875 -4.03125 L 4.125 -0.578125 L 3.421875 -0.578125 L 1.671875 -4.03125 L 1.671875 0 Z M 0.6875 0 "/></g></g></g><g fill="#fcad0b" fill-opacity="1"><g transform="translate(16.771287, 7.509387)"><g><path d="M 3.25 -5.6875 C 3.800781 -5.6875 4.304688 -5.5625 4.765625 -5.3125 C 5.222656 -5.0625 5.582031 -4.71875 5.84375 -4.28125 C 6.101562 -3.84375 6.234375 -3.351562 6.234375 -2.8125 C 6.234375 -2.28125 6.101562 -1.789062 5.84375 -1.34375 C 5.582031 -0.90625 5.222656 -0.554688 4.765625 -0.296875 C 4.304688 -0.046875 3.800781 0.078125 3.25 0.078125 C 2.6875 0.078125 2.175781 -0.046875 1.71875 -0.296875 C 1.257812 -0.554688 0.898438 -0.90625 0.640625 -1.34375 C 0.378906 -1.789062 0.25 -2.28125 0.25 -2.8125 C 0.25 -3.351562 0.378906 -3.84375 0.640625 -4.28125 C 0.898438 -4.71875 1.257812 -5.0625 1.71875 -5.3125 C 2.175781 -5.5625 2.6875 -5.6875 3.25 -5.6875 Z M 3.265625 -4.734375 C 2.921875 -4.734375 2.597656 -4.644531 2.296875 -4.46875 C 2.003906 -4.300781 1.769531 -4.070312 1.59375 -3.78125 C 1.425781 -3.488281 1.34375 -3.164062 1.34375 -2.8125 C 1.34375 -2.457031 1.429688 -2.132812 1.609375 -1.84375 C 1.785156 -1.550781 2.019531 -1.316406 2.3125 -1.140625 C 2.601562 -0.972656 2.921875 -0.890625 3.265625 -0.890625 C 3.597656 -0.890625 3.910156 -0.972656 4.203125 -1.140625 C 4.492188 -1.316406 4.722656 -1.550781 4.890625 -1.84375 C 5.054688 -2.132812 5.140625 -2.457031 5.140625 -2.8125 C 5.140625 -3.164062 5.054688 -3.488281 4.890625 -3.78125 C 4.722656 -4.070312 4.492188 -4.300781 4.203125 -4.46875 C 3.910156 -4.644531 3.597656 -4.734375 3.265625 -4.734375 Z M 3.265625 -4.734375 "/></g></g></g><g fill="#fcad0b" fill-opacity="1"><g transform="translate(24.472073, 7.509387)"><g><path d="M 5.4375 0 L 4.203125 0 L 3.234375 -1.65625 C 3.191406 -1.65625 3.125 -1.65625 3.03125 -1.65625 L 1.765625 -1.65625 L 1.765625 0 L 0.6875 0 L 0.6875 -5.625 L 3.03125 -5.625 C 3.757812 -5.625 4.320312 -5.453125 4.71875 -5.109375 C 5.113281 -4.773438 5.3125 -4.300781 5.3125 -3.6875 C 5.3125 -3.25 5.21875 -2.875 5.03125 -2.5625 C 4.84375 -2.25 4.566406 -2.015625 4.203125 -1.859375 Z M 1.765625 -4.6875 L 1.765625 -2.609375 L 3.03125 -2.609375 C 3.4375 -2.609375 3.742188 -2.691406 3.953125 -2.859375 C 4.171875 -3.035156 4.28125 -3.300781 4.28125 -3.65625 C 4.28125 -4 4.171875 -4.253906 3.953125 -4.421875 C 3.742188 -4.597656 3.4375 -4.6875 3.03125 -4.6875 Z M 1.765625 -4.6875 "/></g></g></g><g fill="#fcad0b" fill-opacity="1"><g transform="translate(31.482277, 7.509387)"><g/></g></g><g fill="#fcad0b" fill-opacity="1"><g transform="translate(34.854885, 7.509387)"><g><path d="M 0.6875 0 L 0.6875 -5.625 L 4.8125 -5.625 L 4.8125 -4.6875 L 1.765625 -4.6875 L 1.765625 -3.296875 L 4.5 -3.296875 L 4.5 -2.359375 L 1.765625 -2.359375 L 1.765625 -0.9375 L 4.90625 -0.9375 L 4.90625 0 Z M 0.6875 0 "/></g></g></g><g fill="#fcad0b" fill-opacity="1"><g transform="translate(41.367229, 7.509387)"><g/></g></g><g fill="#fcad0b" fill-opacity="1"><g transform="translate(44.739838, 7.509387)"><g><path d="M 4.765625 -4 C 4.566406 -4.226562 4.332031 -4.40625 4.0625 -4.53125 C 3.789062 -4.664062 3.515625 -4.734375 3.234375 -4.734375 C 2.890625 -4.734375 2.570312 -4.648438 2.28125 -4.484375 C 1.988281 -4.316406 1.757812 -4.085938 1.59375 -3.796875 C 1.425781 -3.503906 1.34375 -3.179688 1.34375 -2.828125 C 1.34375 -2.484375 1.425781 -2.164062 1.59375 -1.875 C 1.757812 -1.582031 1.988281 -1.351562 2.28125 -1.1875 C 2.570312 -1.019531 2.890625 -0.9375 3.234375 -0.9375 C 3.503906 -0.9375 3.773438 -0.992188 4.046875 -1.109375 C 4.316406 -1.222656 4.554688 -1.382812 4.765625 -1.59375 L 5.390625 -0.890625 C 5.097656 -0.585938 4.753906 -0.347656 4.359375 -0.171875 C 3.972656 -0.00390625 3.582031 0.078125 3.1875 0.078125 C 2.644531 0.078125 2.144531 -0.046875 1.6875 -0.296875 C 1.238281 -0.554688 0.882812 -0.90625 0.625 -1.34375 C 0.375 -1.789062 0.25 -2.28125 0.25 -2.8125 C 0.25 -3.351562 0.378906 -3.84375 0.640625 -4.28125 C 0.898438 -4.71875 1.253906 -5.0625 1.703125 -5.3125 C 2.160156 -5.5625 2.664062 -5.6875 3.21875 -5.6875 C 3.625 -5.6875 4.019531 -5.609375 4.40625 -5.453125 C 4.789062 -5.296875 5.117188 -5.070312 5.390625 -4.78125 Z M 4.765625 -4 "/></g></g></g><g fill="#fcad0b" fill-opacity="1"><g transform="translate(51.533234, 7.509387)"><g><path d="M 6 0 L 4.84375 0 L 4.359375 -1.1875 L 1.609375 -1.1875 L 1.109375 0 L -0.015625 0 L 2.453125 -5.625 L 3.578125 -5.625 Z M 2.984375 -4.46875 L 1.984375 -2.109375 L 3.96875 -2.109375 Z M 2.984375 -4.46875 "/></g></g></g><g fill="#fcad0b" fill-opacity="1"><g transform="translate(58.736162, 7.509387)"><g><path d="M 5.4375 0 L 4.203125 0 L 3.234375 -1.65625 C 3.191406 -1.65625 3.125 -1.65625 3.03125 -1.65625 L 1.765625 -1.65625 L 1.765625 0 L 0.6875 0 L 0.6875 -5.625 L 3.03125 -5.625 C 3.757812 -5.625 4.320312 -5.453125 4.71875 -5.109375 C 5.113281 -4.773438 5.3125 -4.300781 5.3125 -3.6875 C 5.3125 -3.25 5.21875 -2.875 5.03125 -2.5625 C 4.84375 -2.25 4.566406 -2.015625 4.203125 -1.859375 Z M 1.765625 -4.6875 L 1.765625 -2.609375 L 3.03125 -2.609375 C 3.4375 -2.609375 3.742188 -2.691406 3.953125 -2.859375 C 4.171875 -3.035156 4.28125 -3.300781 4.28125 -3.65625 C 4.28125 -4 4.171875 -4.253906 3.953125 -4.421875 C 3.742188 -4.597656 3.4375 -4.6875 3.03125 -4.6875 Z M 1.765625 -4.6875 "/></g></g></g><g fill="#fcad0b" fill-opacity="1"><g transform="translate(65.746368, 7.509387)"><g><path d="M 0.6875 0 L 0.6875 -5.625 L 1.765625 -5.625 L 1.765625 0 Z M 0.6875 0 "/></g></g></g><g fill="#fcad0b" fill-opacity="1"><g transform="translate(69.40806, 7.509387)"><g><path d="M 4.609375 -1.75 L 4.609375 -5.625 L 5.65625 -5.625 L 5.65625 0 L 4.640625 0 L 1.75 -3.875 L 1.75 0 L 0.6875 0 L 0.6875 -5.625 L 1.703125 -5.625 Z M 4.609375 -1.75 "/></g></g></g><g fill="#fcad0b" fill-opacity="1"><g transform="translate(76.956279, 7.509387)"><g><path d="M 0.6875 0 L 0.6875 -5.625 L 1.765625 -5.625 L 1.765625 -3.21875 L 4.5625 -3.21875 L 4.5625 -5.625 L 5.640625 -5.625 L 5.640625 0 L 4.5625 0 L 4.5625 -2.28125 L 1.765625 -2.28125 L 1.765625 0 Z M 0.6875 0 "/></g></g></g><g fill="#fcad0b" fill-opacity="1"><g transform="translate(84.504498, 7.509387)"><g><path d="M 3.25 -5.6875 C 3.800781 -5.6875 4.304688 -5.5625 4.765625 -5.3125 C 5.222656 -5.0625 5.582031 -4.71875 5.84375 -4.28125 C 6.101562 -3.84375 6.234375 -3.351562 6.234375 -2.8125 C 6.234375 -2.28125 6.101562 -1.789062 5.84375 -1.34375 C 5.582031 -0.90625 5.222656 -0.554688 4.765625 -0.296875 C 4.304688 -0.046875 3.800781 0.078125 3.25 0.078125 C 2.6875 0.078125 2.175781 -0.046875 1.71875 -0.296875 C 1.257812 -0.554688 0.898438 -0.90625 0.640625 -1.34375 C 0.378906 -1.789062 0.25 -2.28125 0.25 -2.8125 C 0.25 -3.351562 0.378906 -3.84375 0.640625 -4.28125 C 0.898438 -4.71875 1.257812 -5.0625 1.71875 -5.3125 C 2.175781 -5.5625 2.6875 -5.6875 3.25 -5.6875 Z M 3.265625 -4.734375 C 2.921875 -4.734375 2.597656 -4.644531 2.296875 -4.46875 C 2.003906 -4.300781 1.769531 -4.070312 1.59375 -3.78125 C 1.425781 -3.488281 1.34375 -3.164062 1.34375 -2.8125 C 1.34375 -2.457031 1.429688 -2.132812 1.609375 -1.84375 C 1.785156 -1.550781 2.019531 -1.316406 2.3125 -1.140625 C 2.601562 -0.972656 2.921875 -0.890625 3.265625 -0.890625 C 3.597656 -0.890625 3.910156 -0.972656 4.203125 -1.140625 C 4.492188 -1.316406 4.722656 -1.550781 4.890625 -1.84375 C 5.054688 -2.132812 5.140625 -2.457031 5.140625 -2.8125 C 5.140625 -3.164062 5.054688 -3.488281 4.890625 -3.78125 C 4.722656 -4.070312 4.492188 -4.300781 4.203125 -4.46875 C 3.910156 -4.644531 3.597656 -4.734375 3.265625 -4.734375 Z M 3.265625 -4.734375 "/></g></g></g></g></g></g><g clip-path="url(#a50f13b78c)"><path stroke-linecap="butt" transform="matrix(0.749336, 0.00141304, -0.00141304, 0.749336, 104.38056, 7.916079)" fill="none" stroke-linejoin="miter" d="M -0.000324017 0.998196 L 236.782194 1.000002 " stroke="#fcad0b" stroke-width="2" stroke-opacity="1" stroke-miterlimit="4"/></g></svg>